<?xml version="1.0" encoding="UTF-8"?>
<svg width="186px" height="30px" viewBox="0 0 186 30" version="1.1" xmlns="http://www.w3.org/2000/svg" xmlns:xlink="http://www.w3.org/1999/xlink">
    <!-- Generator: Sketch 50.2 (55047) - http://www.bohemiancoding.com/sketch -->
    <title>white-logo</title>
    <desc>Created with Sketch.</desc>
    <defs>
        <polygon id="path-1" points="0.424354839 0.266612903 11.9404839 0.266612903 11.9404839 9.97548387 0.424354839 9.97548387"></polygon>
        <polygon id="path-3" points="0.355205818 0.234193548 16.2953226 0.234193548 16.2953226 11.8770968 0.355205818 11.8770968"></polygon>
    </defs>
    <g id="Page-1" stroke="none" stroke-width="1" fill="none" fill-rule="evenodd">
        <g id="Artboard">
            <g id="logo-/-old-/-white">
                <g id="Group">
                    <path d="M0,29.7498387 L0,6.5283871 L3.93580645,6.5283871 L3.93580645,15.686129 C4.58322581,15.0101613 5.31629032,14.4706452 6.13548387,14.07 C6.95129032,13.6679032 7.90790323,13.4666129 9.00435484,13.4666129 C9.89516129,13.4666129 10.71,13.6475806 11.4459677,14.0066129 C12.1882258,14.3646774 12.8254839,14.8896774 13.3620968,15.5762903 C13.8972581,16.2643548 14.3119355,17.1135484 14.6037097,18.123871 C14.8964516,19.1341935 15.0391935,20.2964516 15.0391935,21.6087097 C15.0391935,22.8058065 14.8751613,23.9162903 14.55,24.9377419 C14.2185484,25.9582258 13.7491935,26.8432258 13.1375806,27.5932258 C12.5279032,28.3432258 11.79,28.9306452 10.9229032,29.3516129 C10.0577419,29.7730645 9.08709677,29.9854839 8.01435484,29.9854839 C7.51645161,29.9854839 7.05870968,29.9346774 6.64354839,29.8369355 C6.2283871,29.7377419 5.85145161,29.5998387 5.51274194,29.4222581 C5.17354839,29.2441935 4.85758065,29.0293548 4.56435484,28.7743548 C4.2716129,28.5183871 3.99435484,28.233871 3.72629032,27.9227419 L3.55209677,28.9998387 C3.48822581,29.2708065 3.37887097,29.463871 3.22693548,29.5780645 C3.07209677,29.6922581 2.86258065,29.7498387 2.5983871,29.7498387 L0,29.7498387 Z M7.64806452,16.4670968 C6.82887097,16.4670968 6.13209677,16.6374194 5.55290323,16.9751613 C4.97274194,17.3133871 4.43467742,17.7904839 3.93580645,18.4045161 L3.93580645,25.5943548 C4.38290323,26.1358065 4.86629032,26.5137097 5.39225806,26.7270968 C5.91725806,26.9404839 6.4916129,27.0464516 7.10612903,27.0464516 C7.69887097,27.0464516 8.23645161,26.9380645 8.71548387,26.7183871 C9.19306452,26.4991935 9.59854839,26.1672581 9.93387097,25.7187097 C10.2706452,25.271129 10.526129,24.7059677 10.7075806,24.0232258 C10.8870968,23.3404839 10.9780645,22.5353226 10.9780645,21.6087097 C10.9780645,20.6719355 10.9025806,19.8764516 10.7467742,19.2251613 C10.5924194,18.5748387 10.3722581,18.0464516 10.0887097,17.6395161 C9.7983871,17.2330645 9.45145161,16.9359677 9.04306452,16.7482258 C8.63419355,16.5619355 8.16822581,16.4670968 7.64806452,16.4670968 Z" id="Fill-1" fill="#FFFFFE"></path>
                    <polygon id="Fill-2" fill="#FFFFFE" points="17.4154839 29.748871 21.3517742 29.748871 21.3517742 6.5283871 17.4154839 6.5283871"></polygon>
                    <path d="M37.6553226,29.7498387 L35.8872581,29.7498387 C35.5132258,29.7498387 35.2204839,29.6956452 35.0109677,29.5862903 C34.7970968,29.4764516 34.6359677,29.2553226 34.5304839,28.9209677 L34.1825806,27.7819355 C33.7679032,28.1472581 33.3633871,28.466129 32.9617742,28.7404839 C32.5625806,29.0182258 32.1522581,29.2504839 31.7269355,29.4372581 C31.3025806,29.6259677 30.8506452,29.7667742 30.3725806,29.8591935 C29.8930645,29.9530645 29.3617742,30 28.7801613,30 C28.0887097,30 27.4519355,29.9085484 26.865,29.7266129 C26.2819355,29.5451613 25.781129,29.268871 25.3606452,28.9030645 C24.9425806,28.5372581 24.6154839,28.0819355 24.3798387,27.5390323 C24.1456452,26.996129 24.03,26.3627419 24.03,25.6412903 C24.03,25.0364516 24.1901613,24.4379032 24.5177419,23.8456452 C24.8385484,23.2558065 25.3775806,22.7235484 26.1319355,22.2479032 C26.8882258,21.7708065 27.888871,21.3764516 29.1445161,21.0624194 C30.3996774,20.7498387 31.9562903,20.5935484 33.8158065,20.5935484 L33.8158065,19.6480645 C33.8158065,18.5675806 33.5830645,17.7667742 33.12,17.2475806 C32.6583871,16.7274194 31.9887097,16.4670968 31.1037097,16.4670968 C30.4669355,16.4670968 29.9366129,16.541129 29.5112903,16.6862903 C29.0883871,16.8319355 28.7177419,16.9959677 28.4051613,17.178871 C28.0916129,17.3608065 27.8012903,17.5253226 27.5370968,17.67 C27.2690323,17.8166129 26.9782258,17.8896774 26.6583871,17.8896774 C26.3927419,17.8896774 26.1653226,17.8219355 25.9737097,17.6874194 C25.7845161,17.55 25.6267742,17.3845161 25.5120968,17.186129 L24.7959677,15.9508065 C26.6772581,14.2640323 28.9437097,13.4201613 31.5996774,13.4201613 C32.5558065,13.4201613 33.4083871,13.575 34.1564516,13.8817742 C34.9074194,14.1890323 35.5417742,14.6153226 36.0614516,15.1625806 C36.5801613,15.7093548 36.9793548,16.3625806 37.2483871,17.1246774 C37.5193548,17.8848387 37.6553226,18.7185484 37.6553226,19.6253226 L37.6553226,29.7498387 Z M30.0058065,27.3435484 C30.4079032,27.3435484 30.7804839,27.3082258 31.1191935,27.236129 C31.4603226,27.165 31.7835484,27.056129 32.0845161,26.9133871 C32.3874194,26.7687097 32.6801613,26.5930645 32.9617742,26.3830645 C33.2443548,26.1730645 33.5279032,25.923871 33.8158065,25.6364516 L33.8158065,22.9529032 C32.666129,22.9529032 31.7090323,23.0245161 30.9372581,23.1648387 C30.1693548,23.306129 29.5480645,23.4885484 29.0816129,23.7077419 C28.6141935,23.9283871 28.2812903,24.1853226 28.0858065,24.4804839 C27.8874194,24.7727419 27.791129,25.0930645 27.791129,25.4404839 C27.791129,26.1212903 27.9962903,26.6090323 28.4051613,26.9037097 C28.811129,27.1969355 29.3487097,27.3435484 30.0058065,27.3435484 Z" id="Fill-3" fill="#FFFFFE"></path>
                    <path d="M52.0596774,17.1087097 C51.9445161,17.2553226 51.8298387,17.3690323 51.7195161,17.4527419 C51.6082258,17.535 51.4456452,17.5766129 51.2341935,17.5766129 C51.0304839,17.5766129 50.8335484,17.5170968 50.6424194,17.3970968 C50.4503226,17.2775806 50.2224194,17.1425806 49.9558065,16.9906452 C49.6916129,16.8401613 49.3766129,16.7046774 49.0079032,16.5841935 C48.6435484,16.4641935 48.1896774,16.4041935 47.6482258,16.4041935 C46.9572581,16.4041935 46.3504839,16.5280645 45.8308065,16.7729032 C45.3096774,17.0172581 44.8775806,17.3690323 44.5296774,17.8272581 C44.1870968,18.2859677 43.9272581,18.8404839 43.7579032,19.4903226 C43.5866129,20.1430645 43.5033871,20.8790323 43.5033871,21.7030645 C43.5033871,22.5570968 43.5933871,23.3172581 43.7816129,23.9845161 C43.9698387,24.6498387 44.2359677,25.2116129 44.5858065,25.6635484 C44.9380645,26.1169355 45.3624194,26.4619355 45.8612903,26.696129 C46.361129,26.928871 46.923871,27.0464516 47.5509677,27.0464516 C48.1770968,27.0464516 48.6875806,26.9709677 49.0732258,26.8209677 C49.4603226,26.67 49.788871,26.5016129 50.0545161,26.3201613 C50.3191935,26.1377419 50.5495161,25.9708065 50.7459677,25.8193548 C50.9419355,25.6698387 51.165,25.5943548 51.4074194,25.5943548 C51.7258065,25.5943548 51.9662903,25.7133871 52.1235484,25.9524194 L53.2553226,27.36 C52.8212903,27.8583871 52.3466129,28.278871 51.8385484,28.6175806 C51.3270968,28.9572581 50.8016129,29.2267742 50.2514516,29.4290323 C49.706129,29.6332258 49.1404839,29.7764516 48.5545161,29.8596774 C47.9714516,29.9424194 47.3903226,29.9854839 46.8159677,29.9854839 C45.8085484,29.9854839 44.8591935,29.7991935 43.965,29.4290323 C43.0722581,29.0598387 42.2966129,28.5212903 41.6293548,27.8124194 C40.9664516,27.1030645 40.4429032,26.2364516 40.0519355,25.2116129 C39.6662903,24.1843548 39.4727419,23.0153226 39.4727419,21.7030645 C39.4727419,20.5253226 39.6420968,19.4327419 39.9880645,18.4291935 C40.3316129,17.4241935 40.8420968,16.5537097 41.5098387,15.8191935 C42.1829032,15.0851613 43.0108065,14.5093548 43.9974194,14.0927419 C44.9845161,13.6756452 46.121129,13.4666129 47.4091935,13.4666129 C48.6285484,13.4666129 49.6993548,13.6601613 50.6177419,14.0448387 C51.5395161,14.4309677 52.3640323,14.9830645 53.0966129,15.7020968 L52.0596774,17.1087097" id="Fill-4" fill="#FFFFFE"></path>
                    <path d="M58.8009677,6.52887097 L58.8009677,19.8275806 L59.535,19.8275806 C59.8006452,19.8275806 60.0087097,19.7917742 60.1577419,19.7187097 C60.3043548,19.6451613 60.4645161,19.5087097 60.6358065,19.3112903 L64.6969355,14.3893548 C64.8793548,14.1808065 65.0690323,14.0162903 65.2727419,13.8962903 C65.4730645,13.7772581 65.741129,13.7177419 66.0706452,13.7177419 L69.671129,13.7177419 L64.5856452,19.6708065 C64.406129,19.8895161 64.2212903,20.0903226 64.0282258,20.2727419 C63.8390323,20.4541935 63.6314516,20.6143548 63.4059677,20.748871 C63.6314516,20.9056452 63.8269355,21.0885484 63.9967742,21.296129 C64.1666129,21.5041935 64.3369355,21.7282258 64.5062903,21.9687097 L69.956129,29.7498387 L66.4025806,29.7498387 C66.0958065,29.7498387 65.8335484,29.6970968 65.6225806,29.5940323 C65.4106452,29.49 65.2185484,29.3124194 65.0482258,29.0632258 L60.8879032,22.983871 C60.7287097,22.7448387 60.5695161,22.5890323 60.4122581,22.5169355 C60.2516129,22.4429032 60.0145161,22.406129 59.6932258,22.406129 L58.8009677,22.406129 L58.8009677,29.7498387 L54.8675806,29.7498387 L54.8675806,6.52887097 L58.8009677,6.52887097" id="Fill-5" fill="#FFFFFE"></path>
                    <path d="M71.4866129,29.7498387 L71.4866129,6.5283871 L75.4233871,6.5283871 L75.4233871,15.686129 C76.0727419,15.0101613 76.8048387,14.4706452 77.6245161,14.07 C78.4379032,13.6679032 79.3974194,13.4666129 80.4919355,13.4666129 C81.3846774,13.4666129 82.1985484,13.6475806 82.9359677,14.0066129 C83.6733871,14.3646774 84.3116129,14.8896774 84.8487097,15.5762903 C85.383871,16.2643548 85.7995161,17.1135484 86.0922581,18.123871 C86.3830645,19.1341935 86.5296774,20.2964516 86.5296774,21.6087097 C86.5296774,22.8058065 86.3646774,23.9162903 86.0370968,24.9377419 C85.7070968,25.9582258 85.2358065,26.8432258 84.6266129,27.5932258 C84.0164516,28.3432258 83.2775806,28.9306452 82.413871,29.3516129 C81.5458065,29.7730645 80.5746774,29.9854839 79.5033871,29.9854839 C79.0045161,29.9854839 78.5467742,29.9346774 78.1320968,29.8369355 C77.7164516,29.7377419 77.3404839,29.5998387 77.0017742,29.4222581 C76.661129,29.2441935 76.3451613,29.0293548 76.0514516,28.7743548 C75.7601613,28.5183871 75.4824194,28.233871 75.2133871,27.9227419 L75.0387097,28.9998387 C74.9753226,29.2708065 74.8683871,29.463871 74.7145161,29.5780645 C74.5591935,29.6922581 74.3496774,29.7498387 74.0845161,29.7498387 L71.4866129,29.7498387 Z M79.1356452,16.4670968 C78.3179032,16.4670968 77.6196774,16.6374194 77.0424194,16.9751613 C76.4617742,17.3133871 75.9208065,17.7904839 75.4233871,18.4045161 L75.4233871,25.5943548 C75.8714516,26.1358065 76.3562903,26.5137097 76.8812903,26.7270968 C77.4067742,26.9404839 77.9782258,27.0464516 78.5941935,27.0464516 C79.1903226,27.0464516 79.7259677,26.9380645 80.2035484,26.7183871 C80.6840323,26.4991935 81.0885484,26.1672581 81.4253226,25.7187097 C81.7562903,25.271129 82.0141935,24.7059677 82.1946774,24.0232258 C82.376129,23.3404839 82.466129,22.5353226 82.466129,21.6087097 C82.466129,20.6719355 82.3896774,19.8764516 82.2353226,19.2251613 C82.0829032,18.5748387 81.8617742,18.0464516 81.5762903,17.6395161 C81.2883871,17.2330645 80.9380645,16.9359677 80.531129,16.7482258 C80.1203226,16.5619355 79.6572581,16.4670968 79.1356452,16.4670968 Z" id="Fill-6" fill="#FFFFFE"></path>
                    <path d="M92.2524194,13.7177419 L92.2524194,23.9066129 C92.2524194,24.8864516 92.4822581,25.6437097 92.9448387,26.178871 C93.4059677,26.7159677 94.1012903,26.9840323 95.0254839,26.9840323 C95.7043548,26.9840323 96.3406452,26.8340323 96.9348387,26.538871 C97.5314516,26.2417742 98.0932258,25.8333871 98.6245161,25.3122581 L98.6245161,13.7177419 L102.561774,13.7177419 L102.561774,29.7498387 L100.155484,29.7498387 C99.6469355,29.7498387 99.3096774,29.5141935 99.1504839,29.0462903 L98.8804839,27.7659677 C98.5393548,28.098871 98.1895161,28.4046774 97.8275806,28.6795161 C97.4680645,28.9567742 97.0829032,29.1909677 96.6735484,29.3840323 C96.2622581,29.5746774 95.823871,29.7270968 95.3506452,29.8374194 C94.8798387,29.9462903 94.368871,29.9995161 93.8279032,29.9995161 C92.9366129,29.9995161 92.1474194,29.8519355 91.4627419,29.5548387 C90.7766129,29.2577419 90.1993548,28.8396774 89.7343548,28.2972581 C89.2669355,27.7558065 88.9127419,27.1127419 88.6732258,26.3675806 C88.4332258,25.6224194 88.316129,24.8022581 88.316129,23.9066129 L88.316129,13.7177419 L92.2524194,13.7177419" id="Fill-7" fill="#FFFFFE"></path>
                    <polygon id="Fill-8" fill="#FFFFFE" points="106.067903 29.748871 110.00371 29.748871 110.00371 6.5283871 106.067903 6.5283871"></polygon>
                    <polygon id="Fill-9" fill="#FFFFFE" points="113.747419 29.748871 117.684194 29.748871 117.684194 6.5283871 113.747419 6.5283871"></polygon>
                    <path d="M125.954516,9.04548387 C125.954516,9.37887097 125.885806,9.69145161 125.747903,9.98225806 C125.608548,10.2745161 125.426129,10.5295161 125.198226,10.7477419 C124.969355,10.9664516 124.702742,11.1416129 124.393548,11.2722581 C124.083387,11.4029032 123.756774,11.4667742 123.404032,11.4667742 C123.064355,11.4667742 122.744516,11.4029032 122.440161,11.2722581 C122.137742,11.1416129 121.876452,10.9664516 121.651935,10.7477419 C121.429839,10.5295161 121.251774,10.2745161 121.119194,9.98225806 C120.986613,9.69145161 120.919355,9.37887097 120.919355,9.04548387 C120.919355,8.70145161 120.986613,8.37870968 121.119194,8.07580645 C121.251774,7.77290323 121.429839,7.51354839 121.651935,7.29435484 C121.876452,7.07564516 122.137742,6.90145161 122.440161,6.77225806 C122.744516,6.64112903 123.064355,6.57580645 123.404032,6.57580645 C123.756774,6.57580645 124.083387,6.64112903 124.393548,6.77225806 C124.702742,6.90145161 124.969355,7.07564516 125.198226,7.29435484 C125.426129,7.51354839 125.608548,7.77290323 125.747903,8.07580645 C125.885806,8.37870968 125.954516,8.70145161 125.954516,9.04548387 Z M121.429839,29.7498387 L125.365645,29.7498387 L125.365645,13.7177419 L121.429839,13.7177419 L121.429839,29.7498387 Z" id="Fill-10" fill="#FFFFFE"></path>
                    <path d="M135.835161,13.4666129 C137.057419,13.4666129 138.164032,13.6596774 139.156935,14.0443548 C140.150323,14.4314516 141,14.9777419 141.702097,15.686129 C142.399839,16.3954839 142.942258,17.2587097 143.325,18.2796774 C143.70629,19.301129 143.898387,20.4425806 143.898387,21.7030645 C143.898387,22.9737097 143.70629,24.1204839 143.325,25.1404839 C142.942258,26.1609677 142.399839,27.0309677 141.702097,27.75 C141,28.4685484 140.150323,29.021129 139.156935,29.4058065 C138.164032,29.7909677 137.057419,29.9854839 135.835161,29.9854839 C134.612419,29.9854839 133.5,29.7909677 132.502742,29.4058065 C131.505484,29.021129 130.653871,28.4685484 129.945484,27.75 C129.240968,27.0309677 128.694677,26.1609677 128.305161,25.1404839 C127.918548,24.1204839 127.723548,22.9737097 127.723548,21.7030645 C127.723548,20.4425806 127.918548,19.301129 128.305161,18.2796774 C128.694677,17.2587097 129.240968,16.3954839 129.945484,15.686129 C130.653871,14.9777419 131.505484,14.4314516 132.502742,14.0443548 C133.5,13.6596774 134.612419,13.4666129 135.835161,13.4666129 M135.835161,27.0154839 C137.19629,27.0154839 138.201774,26.5679032 138.855968,25.6717742 C139.509194,24.7751613 139.833871,23.4633871 139.833871,21.7325806 C139.833871,20.0041935 139.509194,18.6870968 138.855968,17.7803226 C138.201774,16.8740323 137.19629,16.421129 135.835161,16.421129 C134.452742,16.421129 133.434677,16.8764516 132.776129,17.7890323 C132.117097,18.6991935 131.788065,20.0148387 131.788065,21.7325806 C131.788065,23.4522581 132.117097,24.7625806 132.776129,25.6635484 C133.434677,26.5645161 134.452742,27.0154839 135.835161,27.0154839" id="Fill-11" fill="#FFFFFE"></path>
                    <path d="M146.019194,29.7498387 L146.019194,13.7177419 L148.423548,13.7177419 C148.936452,13.7177419 149.270323,13.9514516 149.43,14.4203226 L149.699032,15.686129 C150.026129,15.3527419 150.377903,15.0508065 150.744677,14.7798387 C151.110484,14.5098387 151.497581,14.2737097 151.905968,14.0767742 C152.314839,13.8798387 152.752742,13.7279032 153.220161,13.6229032 C153.686613,13.518871 154.199516,13.4666129 154.750161,13.4666129 C155.642903,13.4666129 156.434516,13.6170968 157.125484,13.9122581 C157.816935,14.2093548 158.390806,14.6254839 158.855323,15.1625806 C159.316935,15.6987097 159.66871,16.3403226 159.905806,17.0845161 C160.144355,17.8296774 160.265806,18.6498387 160.265806,19.5454839 L160.265806,29.7498387 L156.330484,29.7498387 L156.330484,19.5454839 C156.330484,18.5666129 156.101129,17.8093548 155.635645,17.2727419 C155.173548,16.736129 154.480161,16.4670968 153.557419,16.4670968 C152.876129,16.4670968 152.235968,16.6180645 151.642258,16.9209677 C151.048548,17.2224194 150.485323,17.6351613 149.955484,18.1548387 L149.955484,29.7498387 L146.019194,29.7498387" id="Fill-12" fill="#FFFFFE"></path>
                    <path d="M170.560645,13.3291935 L169.369839,17.1469355 L169.252742,17.5233871 C169.180645,17.7566129 169.263871,18.0101613 169.465161,18.1519355 C169.516452,18.1882258 169.570645,18.2153226 169.62871,18.2351613 L169.685806,18.2414516 L169.805323,18.2612903 L169.810161,18.2627419 L169.914677,18.2462903 L169.981935,18.2366129 C170.037097,18.2220968 170.092258,18.1964516 170.142581,18.1616129 L173.647742,15.7940323 L172.777742,13.3722581 L170.560645,13.3291935" id="Fill-13" fill="#7FCAD1"></path>
                    <path d="M170.452258,8.92258065 L171.125323,8.42758065 L170.562581,6.62177419 L169.225645,6.64741935 L166.312258,6.70403226 C166.062097,6.7083871 165.845806,6.86903226 165.770323,7.09887097 C165.691452,7.33354839 165.774677,7.58758065 165.973065,7.73274194 L169.02,9.97548387 L169.329677,9.74854839 L170.452258,8.92258065" id="Fill-14" fill="#7FCAD1"></path>
                    <path d="M177.259355,15.7935484 L180.766935,18.1620968 C180.864677,18.2298387 180.980323,18.2627419 181.096452,18.2627419 C181.218871,18.2627419 181.338387,18.2259677 181.440968,18.1519355 C181.642258,18.0096774 181.728387,17.7570968 181.652903,17.5233871 L180.344516,13.3291935 L178.126452,13.3727419 L177.259355,15.7935484" id="Fill-15" fill="#7FCAD1"></path>
                    <g id="Group-19" transform="translate(173.225806, 0.000000)">
                        <mask id="mask-2" fill="white">
                            <use xlink:href="#path-1"></use>
                        </mask>
                        <g id="Clip-17"></g>
                        <path d="M3.36048387,4.60887097 L4.03451613,4.155 L3.98032258,4.00548387 L2.7783871,0.650322581 C2.69806452,0.421935484 2.47451613,0.266612903 2.22774194,0.266612903 C1.98290323,0.266612903 1.76129032,0.421935484 1.67709677,0.650322581 L1.26532258,1.80483871 L0.424354839,4.15596774 L2.22580645,5.37387097 L3.36048387,4.60887097" id="Fill-16" fill="#7FCAD1" mask="url(#mask-2)"></path>
                        <path d="M7.23919355,8.93129032 L8.3516129,9.74903226 L8.66129032,9.97548387 L11.7062903,7.73322581 C11.9056452,7.58758065 11.9898387,7.33354839 11.9114516,7.09887097 C11.8359677,6.86903226 11.6187097,6.7083871 11.3670968,6.70403226 L8.45564516,6.64741935 L7.11967742,6.62129032 L6.55645161,8.42758065 L7.23919355,8.93129032" id="Fill-18" fill="#7FCAD1" mask="url(#mask-2)"></path>
                    </g>
                    <path d="M180.344516,6.62129032 L181.534355,2.80258065 L181.652903,2.42564516 C181.728387,2.19290323 181.64129,1.94080645 181.439516,1.79806452 C181.391129,1.76274194 181.335484,1.73467742 181.275484,1.71435484 L181.220806,1.70854839 L181.099355,1.68725806 L181.095484,1.68629032 L180.989516,1.70322581 L180.925645,1.71193548 C180.87,1.72645161 180.81871,1.75258065 180.765968,1.78693548 L177.260323,4.155 L178.128387,6.57774194 L180.344516,6.62129032" id="Fill-20" fill="#DF508A"></path>
                    <g id="Group-24" transform="translate(168.870968, 1.451613)">
                        <mask id="mask-4" fill="white">
                            <use xlink:href="#path-3"></use>
                        </mask>
                        <g id="Clip-22"></g>
                        <path d="M4.77822581,2.70435484 L1.27258065,0.335322581 C1.17145161,0.269032258 1.05387097,0.234193548 0.939193548,0.234193548 C0.81483871,0.234193548 0.696774194,0.271935484 0.59516129,0.346451613 C0.391451613,0.489193548 0.307741935,0.741774194 0.381774194,0.973548387 L1.6916129,5.17016129 L3.91016129,5.12612903 L4.77822581,2.70435484" id="Fill-21" fill="#DF508A" mask="url(#mask-4)"></path>
                        <path d="M16.0606452,10.7641935 L13.016129,8.52387097 L12.7074194,8.75129032 L11.5891935,9.57483871 L10.9112903,10.0703226 L11.4735484,11.8770968 L12.8085484,11.8509677 L15.7209677,11.7933871 C15.9716129,11.7890323 16.1908065,11.628871 16.2662903,11.3995161 C16.3446774,11.1643548 16.2624194,10.9108065 16.0606452,10.7641935" id="Fill-23" fill="#DF508A" mask="url(#mask-4)"></path>
                    </g>
                    <path d="M174.319839,15.3396774 L173.647742,15.7940323 L173.701935,15.9445161 L174.902903,19.2991935 C174.985161,19.5270968 175.207742,19.6814516 175.451613,19.6814516 C175.700323,19.6814516 175.920968,19.5270968 176.003226,19.2991935 L177.259355,15.7935484 L175.453548,14.5741935 L174.319839,15.3396774" id="Fill-25" fill="#DF508A"></path>
                    <path d="M170.442581,11.0177419 L169.32871,10.2029032 L169.020968,9.97548387 L165.974032,12.2158065 C165.775645,12.3624194 165.691452,12.6159677 165.77129,12.851129 C165.845806,13.0804839 166.062097,13.2406452 166.31129,13.245 L169.222258,13.3025806 L170.560645,13.3291935 L171.124355,11.5219355 L170.442581,11.0177419" id="Fill-26" fill="#DF508A"></path>
                    <polyline id="Fill-27" fill="#7FCAD1" points="180.460161 11.0264516 181.886129 9.97548387 181.578387 9.74903226 180.465 8.93129032 179.782742 8.42758065 180.345484 6.62177419 178.129355 6.57774194 177.260323 4.155 176.58629 4.60935484 175.451613 5.37387097 173.649194 4.15596774 172.781129 6.57774194 170.561613 6.62177419 171.125323 8.42758065 169.32871 9.74903226 169.02 9.97548387 169.32871 10.2024194 170.442581 11.0177419 171.124355 11.5219355 170.560645 13.3291935 172.77871 13.3722581 173.647742 15.7945161 174.319839 15.3396774 175.454516 14.5746774 177.259355 15.7940323 178.126452 13.3722581 180.345484 13.3291935 179.782742 11.5219355 180.460161 11.0264516"></polyline>
                    <polyline id="Fill-28" fill="#8B487B" points="180.460161 11.0264516 181.886129 9.97548387 181.578387 9.74903226 180.465 8.93129032 179.782742 8.42758065 180.345484 6.62177419 178.129355 6.57774194 177.260323 4.155 176.58629 4.60935484 175.451613 5.37387097 173.649194 4.15596774 172.781129 6.57774194 170.561613 6.62177419 171.125323 8.42758065 169.32871 9.74903226 169.02 9.97548387 169.32871 10.2024194 170.442581 11.0177419 171.124355 11.5219355 170.560645 13.3291935 172.77871 13.3722581 173.647742 15.7945161 174.319839 15.3396774 175.454516 14.5746774 177.259355 15.7940323 178.126452 13.3722581 180.345484 13.3291935 179.782742 11.5219355 180.460161 11.0264516"></polyline>
                </g>
            </g>
        </g>
    </g>
</svg>